<?xml version="1.0" standalone="no"?>
<!DOCTYPE svg PUBLIC "-//W3C//DTD SVG 20010904//EN"
 "http://www.w3.org/TR/2001/REC-SVG-20010904/DTD/svg10.dtd">
<svg version="1.0" xmlns="http://www.w3.org/2000/svg"
 width="512.000000pt" height="512.000000pt" viewBox="0 0 512.000000 512.000000"
 preserveAspectRatio="xMidYMid meet">
<metadata>
Created by potrace 1.14, written by Peter Selinger 2001-2017
</metadata>
<g transform="translate(0.000000,512.000000) scale(0.100000,-0.100000)"
fill="#000000" stroke="none">
<path d="M912 5098 c-27 -13 -55 -38 -75 -67 -32 -46 -32 -46 -32 -172 0 -117
2 -128 25 -162 90 -133 281 -124 349 16 17 36 19 60 18 158 -2 110 -3 118 -31
157 -40 59 -86 85 -155 88 -40 2 -68 -4 -99 -18z"/>
<path d="M1733 5110 c-47 -15 -110 -82 -124 -132 -6 -24 -9 -87 -7 -144 3 -87
7 -106 28 -138 90 -133 280 -122 349 19 17 34 20 59 18 155 -2 102 -5 119 -26
153 -13 21 -40 49 -60 62 -41 28 -129 40 -178 25z"/>
<path d="M2533 5109 c-44 -13 -110 -82 -123 -127 -15 -57 -13 -213 5 -255 50
-120 191 -162 298 -88 64 43 84 93 86 208 1 51 -3 110 -8 131 -11 41 -49 88
-93 116 -32 21 -120 29 -165 15z"/>
<path d="M815 4383 c-133 -28 -235 -68 -345 -137 -83 -52 -91 -59 -165 -131
-153 -150 -247 -327 -290 -545 -20 -107 -21 -2625 0 -2740 65 -363 322 -661
671 -779 33 -11 74 -23 90 -25 16 -3 52 -10 79 -15 30 -6 407 -10 945 -10 953
0 955 0 1107 49 149 48 285 131 396 243 84 84 89 91 143 177 72 116 111 218
138 355 13 69 15 252 15 1375 0 800 -4 1314 -10 1345 -5 28 -11 61 -14 75 -2
14 -14 54 -25 90 -95 293 -332 533 -627 636 -144 50 -94 47 -1098 50 -803 2
-950 0 -1010 -13z m1933 -403 c110 -29 187 -74 272 -160 85 -85 132 -164 160
-272 18 -70 19 -126 19 -1343 1 -1380 3 -1329 -54 -1454 -54 -117 -162 -229
-278 -287 -27 -14 -83 -34 -124 -45 -72 -18 -119 -19 -947 -18 -824 0 -875 1
-944 19 -108 29 -187 75 -273 161 -86 84 -137 176 -164 289 -22 99 -22 2563 1
2660 27 115 78 206 163 290 85 84 151 124 261 157 l75 22 880 0 c833 0 884 -1
953 -19z"/>
<path d="M933 3189 c-46 -13 -110 -81 -123 -131 -28 -101 21 -203 117 -243 31
-13 152 -15 877 -15 791 1 843 2 877 19 94 47 136 140 109 240 -14 51 -78 117
-128 131 -47 13 -1683 12 -1729 -1z"/>
<path d="M912 2378 c-26 -12 -55 -39 -75 -67 -28 -41 -32 -53 -31 -112 0 -73
14 -104 68 -152 17 -15 48 -32 68 -37 24 -7 336 -9 880 -8 816 3 844 4 873 22
74 48 100 95 99 177 0 55 -4 74 -26 107 -15 22 -44 50 -65 63 l-38 24 -855 2
c-849 2 -855 2 -898 -19z"/>
<path d="M933 1589 c-46 -13 -110 -82 -124 -131 -27 -101 23 -203 118 -243 31
-13 152 -15 877 -15 791 1 843 2 877 19 94 47 136 140 109 240 -14 51 -78 117
-128 131 -48 13 -1683 12 -1729 -1z"/>
<path d="M4372 4380 c-109 -29 -187 -75 -272 -160 -110 -110 -164 -224 -176
-372 -7 -85 7 -136 50 -181 45 -48 93 -67 161 -63 101 6 172 77 182 183 8 83
37 138 92 176 41 28 53 32 112 31 72 0 103 -14 152 -67 28 -31 47 -82 47 -127
0 -44 19 -94 47 -126 48 -54 79 -68 152 -68 80 0 125 23 167 87 53 81 37 248
-39 392 -48 91 -166 204 -257 248 -137 67 -283 83 -418 47z"/>
<path d="M4066 3193 c-37 -10 -95 -55 -118 -92 l-23 -36 -2 -1010 c-2 -1158
-3 -1144 82 -1395 72 -214 205 -431 360 -585 65 -65 135 -87 213 -65 91 24
282 259 385 473 54 111 100 247 129 382 21 98 22 117 25 1140 l3 1040 -23 45
c-13 25 -42 58 -66 75 l-43 30 -451 2 c-249 0 -461 -1 -471 -4z m653 -1270
c-1 -874 -1 -878 -24 -988 -25 -123 -57 -214 -110 -313 -46 -87 -63 -108 -74
-96 -20 20 -104 192 -127 260 -60 179 -57 130 -61 1112 l-4 902 201 0 200 0
-1 -877z"/>
</g>
</svg>
