<?xml version="1.0" standalone="no"?>
<!DOCTYPE svg PUBLIC "-//W3C//DTD SVG 20010904//EN"
 "http://www.w3.org/TR/2001/REC-SVG-20010904/DTD/svg10.dtd">
<svg version="1.0" xmlns="http://www.w3.org/2000/svg"
 width="262.000000pt" height="262.000000pt" viewBox="0 0 262.000000 262.000000"
 preserveAspectRatio="xMidYMid meet">
<metadata>
Created by potrace 1.14, written by Peter Selinger 2001-2017
</metadata>
<g transform="translate(0.000000,262.000000) scale(0.100000,-0.100000)"
fill="#000000" stroke="none">
<path d="M1470 1862 l-75 -37 -3 -599 c-1 -349 2 -604 7 -609 5 -5 45 7 97 31
l89 40 3 236 2 236 210 0 210 0 0 -269 c0 -177 4 -272 10 -276 6 -4 51 12 100
36 l90 42 0 604 c0 568 -1 603 -17 603 -10 0 -55 -16 -100 -37 l-83 -36 0
-239 0 -238 -207 2 -208 3 -3 273 -2 272 -23 -1 c-12 0 -56 -17 -97 -37z"/>
<path d="M393 1848 l-43 -22 0 -608 c0 -334 3 -608 8 -608 4 0 49 18 100 41
l92 42 0 172 0 172 198 6 c270 7 324 27 384 138 22 43 23 52 23 279 0 222 -1
237 -22 275 -25 47 -64 85 -113 111 -31 17 -63 19 -310 21 -265 2 -277 2 -317
-19z m543 -191 c23 -27 24 -33 24 -197 0 -164 -1 -170 -24 -197 l-24 -28 -181
-3 -181 -3 0 231 0 231 181 -3 181 -3 24 -28z"/>
</g>
</svg>
